<?xml version="1.0" encoding="utf-8"?>
<!-- Generator: Adobe Illustrator 20.1.0, SVG Export Plug-In . SVG Version: 6.00 Build 0)  -->
<svg version="1.1" id="Calque_1" xmlns="http://www.w3.org/2000/svg" xmlns:xlink="http://www.w3.org/1999/xlink" x="0px" y="0px"
	 viewBox="0 0 432 432" style="enable-background:new 0 0 432 432;" xml:space="preserve">
<style type="text/css">
	.st0{fill:#D90912;}
	.st1{fill:#EC6573;}
	.st2{fill:#CC7B26;}
	.st3{fill:#B36927;}
</style>
<g>
	<g>
		<g>
			<path d="M242.2,169.7c0.1-1.6-0.3-2.9-0.9-4.1c-0.7-1.1-1.8-1.8-3.3-2c-1.1-0.1-2.1,0.1-3.2,0.6c-1.1,0.5-2.1,1.2-3.2,2.1
				c-1.1,0.9-2.1,2.1-3.2,3.4c-1,1.3-2.1,2.8-3.1,4.2c0.2-0.9,0.4-2,0.4-3.3c0.1-1.3,0-2.6-0.3-4c-0.1-0.7-0.3-1.1-0.7-1.4
				c-0.3-0.3-0.7-0.3-1.1-0.2c-0.4,0.1-0.8,0.4-1.1,0.9c-0.3,0.5-0.5,1.1-0.5,1.9c0,1-0.1,2.4-0.4,4.4c0,0.3-0.1,0.6-0.1,1
				c-0.6,1.3-1.4,2.8-2.2,4.5c-1,1.9-2.1,3.8-3.3,5.5c-1.2,1.7-2.6,3.2-4.1,4.4c-1.5,1.2-3,1.8-4.6,1.7c-0.8,0-1.3-0.5-1.4-1.6
				c-0.1-1,0-2.3,0.4-3.9c0.3-1.6,0.8-3.3,1.5-5.2c0.7-1.9,1.3-3.7,2-5.4c0.7-1.7,1.2-3.2,1.7-4.5c0.5-1.3,0.8-2.2,0.9-2.6
				c0.1-0.4,0-0.8-0.3-1.2c-0.3-0.4-0.7-0.7-1.1-0.8c-0.4-0.2-0.9-0.2-1.4-0.2c-0.5,0.1-0.9,0.4-1.1,0.9c-0.8,1.5-1.8,3.5-3.1,5.8
				c-1.3,2.3-2.8,4.5-4.3,6.6c-1.6,2.1-3.2,3.9-4.8,5.4c-1.6,1.5-3.1,2.1-4.4,2c-0.7-0.1-1.1-0.4-1.2-1c-0.1-0.6,0-1.4,0.4-2.3
				c0.4-0.9,0.9-1.9,1.6-3c0.7-1.1,1.4-2.1,2.3-3.1c0.8-1,1.7-1.8,2.6-2.5c0.9-0.7,1.7-1.2,2.5-1.4c0.8-0.2,1.5-0.3,2.1-0.3
				c0.6,0.1,1.1,0.1,1.4,0.3c0.4,0.1,0.6,0.2,0.8,0.3c0.2,0.1,0.3,0,0.3-0.2c0-0.2-0.1-0.4-0.4-0.8c-0.3-0.3-0.6-0.6-1-0.9
				c-0.4-0.3-0.8-0.6-1.3-0.8c-0.5-0.2-0.9-0.4-1.2-0.5c-1.8-0.4-3.5-0.3-5,0.5c-1.6,0.7-2.9,1.8-4.1,3.1c-1.2,1.3-2.1,2.9-2.8,4.6
				c-0.6,1.5-1,3-1.1,4.4c0,0,0,0,0,0c-0.8,1.8-1.6,3.6-2.5,5.5c-0.9,1.9-1.8,3.6-2.6,5c-0.9,1.5-1.7,2.7-2.5,3.6
				c-0.8,0.9-1.4,1.3-1.9,1.2c-0.5-0.1-0.9-0.6-1.1-1.5c-0.2-0.9-0.3-1.9-0.2-3.1c0-0.9,0.1-2.5,0.4-4.6c0.2-2.1,0.5-4.6,0.9-7.4
				c0.4-2.8,0.8-5.7,1.2-8.8c0.4-3.1,0.9-6.1,1.3-9c0.4-2.9,0.8-5.5,1.2-7.8c0.4-2.3,0.7-4.2,0.9-5.5c0.1-0.8,0-1.4-0.4-1.9
				c-0.4-0.5-0.8-0.8-1.3-0.8c-0.5-0.1-1.1,0-1.6,0.4c-0.5,0.3-0.8,0.9-0.9,1.6c-0.2,1.2-0.5,2.8-0.8,4.7c-0.3,2-0.7,4.1-1,6.5
				c-0.9-0.6-2.2-1-4-1.1c-1.8-0.1-3.6-0.1-5.5,0c-1.9,0.2-3.8,0.4-5.6,0.8c-1.8,0.4-3.2,0.7-4.1,1c0.5-3.6,1-7.1,1.5-10.6
				c0.5-3.5,1-7,1.7-10.6c0.2-1.2,0.2-2.1-0.2-2.8c-0.4-0.7-0.8-1-1.4-1.1c-0.6-0.1-1.1,0.2-1.7,0.8c-0.6,0.6-0.9,1.6-1.1,3
				c-0.5,3.9-1.1,7.8-1.7,11.6c-0.6,3.8-1.2,7.6-1.8,11.5c-1.1,0.5-2.2,0.9-3.3,1.4c-1.1,0.4-2.2,0.9-3.3,1.4
				c-0.7,0.3-1.1,0.7-1.3,1.2c-0.2,0.5-0.3,1.1-0.1,1.6c0.1,0.5,0.4,1,0.8,1.2c0.4,0.3,1,0.3,1.6,0c0.7-0.3,1.5-0.6,2.3-0.9
				c0.8-0.3,1.7-0.6,2.5-0.9c-0.5,3.2-0.9,6.4-1.3,9.5c-0.4,3.1-0.8,6-1.1,8.7c-0.3,2.7-0.5,5.1-0.7,7.2c-0.1,2.1-0.2,3.7-0.1,4.9
				c0.1,1.1,0.3,1.8,0.6,2.2c0.4,0.4,0.8,0.6,1.2,0.4c0.4-0.1,0.8-0.5,1.2-1.1c0.4-0.6,0.5-1.4,0.5-2.4c0.1-2.4,0.3-4.9,0.6-7.5
				c0.3-2.6,0.7-5.3,1.1-8c0.4-2.7,0.8-5.4,1.3-8c0.4-2.6,0.8-5.2,1.2-7.5c0.5-0.2,1.8-0.5,3.7-1c1.9-0.5,4-1,6.2-1.3
				c2.2-0.4,4.3-0.6,6.1-0.7c1.8-0.1,2.9,0.2,3.3,0.8c-0.4,2.6-0.7,5.3-1.1,8.1c-0.4,2.8-0.7,5.4-0.9,8c-0.3,2.6-0.5,4.9-0.6,7
				c-0.1,2.1-0.2,3.9,0,5.4c0.1,1,0.2,2,0.4,2.9c0.2,1,0.5,1.8,0.9,2.6c0.4,0.8,0.9,1.4,1.5,1.8c0.6,0.4,1.3,0.7,2.1,0.7
				c0.8,0,1.6-0.5,2.6-1.5c1-1,1.9-2.2,2.9-3.8c1-1.5,2-3.3,3-5.2c0.6-1.2,1.2-2.4,1.8-3.6c0,0.1,0.1,0.1,0.1,0.2
				c0.7,1.1,1.8,1.8,3.3,2.1c1.1,0.1,2.2-0.1,3.3-0.8c1.2-0.6,2.3-1.5,3.5-2.5c1.2-1.1,2.3-2.3,3.4-3.7c1.1-1.4,2.2-2.9,3.2-4.5
				c-0.3,1.1-0.7,2.4-1.2,4c-0.5,1.6-0.9,3.2-1.1,4.8c-0.2,1.6-0.1,3.1,0.3,4.4c0.4,1.3,1.4,2.3,2.9,2.9c2.1,0.5,4,0.2,5.9-0.9
				c1.8-1.2,3.5-2.7,5-4.7c1.2-1.6,2.4-3.3,3.4-5.2c-0.3,1.9-0.6,3.8-0.9,5.9c-0.4,2.9-0.9,5.6-1.3,8.2c-0.4,2.6-0.8,5.1-1.2,7.3
				c-0.4,2.2-0.7,4-0.9,5.2c-0.1,0.8,0,1.4,0.4,1.9c0.4,0.5,0.8,0.8,1.3,0.8c0.5,0.1,1,0,1.5-0.4c0.5-0.3,0.8-0.9,1-1.7
				c1-4.8,1.9-9.7,2.6-14.7c0.7-5,1.3-9.8,1.9-14.5c1-1.5,2-3.1,3.1-4.7c1.1-1.6,2.2-3,3.3-4.2c1.1-1.2,2.2-2.2,3.3-2.9
				c1.1-0.7,2.1-1,3-1c0.7,0.1,1.1,0.4,1.2,1c0.1,0.6,0,1.4-0.4,2.3c-0.4,0.9-0.9,1.9-1.6,3c-0.7,1.1-1.4,2.1-2.3,3.1
				c-0.8,1-1.7,1.8-2.6,2.5c-0.9,0.7-1.7,1.2-2.5,1.4c-0.8,0.2-1.5,0.3-2.1,0.3c-0.6-0.1-1-0.1-1.4-0.3c-0.4-0.1-0.6-0.2-0.8-0.3
				c-0.2-0.1-0.3,0-0.3,0.1c0,0.2,0.1,0.4,0.4,0.8c0.3,0.3,0.6,0.7,1,1c0.4,0.3,0.9,0.6,1.3,0.9c0.5,0.3,0.9,0.4,1.2,0.5
				c1.8,0.4,3.5,0.3,5-0.5c1.6-0.7,2.9-1.8,4.1-3.2c1.2-1.4,2.1-2.9,2.8-4.6C241.7,173,242.1,171.3,242.2,169.7z"/>
			<path d="M266.4,169.7c0.1-1.6-0.3-2.9-0.9-4.1c-0.7-1.1-1.8-1.8-3.3-2c-1.1-0.1-2.1,0.1-3.2,0.6c-1.1,0.5-2.1,1.2-3.2,2.1
				c-1.1,0.9-2.1,2.1-3.2,3.4c-1,1.3-2.1,2.8-3.1,4.2c0.2-0.9,0.4-2,0.4-3.3c0.1-1.3,0-2.6-0.3-4c-0.1-0.7-0.3-1.1-0.7-1.4
				c-0.3-0.3-0.7-0.3-1.1-0.2c-0.4,0.1-0.8,0.4-1.1,0.9c-0.3,0.5-0.5,1.1-0.5,1.9c0,1-0.1,2.4-0.4,4.4c-0.2,2-0.5,4.2-0.9,6.8
				c-0.4,2.6-0.8,5.3-1.2,8.1c-0.4,2.9-0.9,5.6-1.3,8.2c-0.4,2.6-0.8,5.1-1.2,7.3c-0.4,2.2-0.7,4-0.9,5.2c-0.1,0.8,0,1.4,0.4,1.9
				c0.4,0.5,0.8,0.8,1.3,0.8c0.5,0.1,1,0,1.5-0.4c0.5-0.3,0.8-0.9,1-1.7c1-4.8,1.9-9.7,2.6-14.7c0.7-5,1.3-9.8,1.9-14.5
				c1-1.5,2-3.1,3.1-4.7c1.1-1.6,2.2-3,3.3-4.2c1.1-1.2,2.2-2.2,3.3-2.9c1.1-0.7,2.1-1,3-1c0.7,0.1,1.1,0.4,1.2,1
				c0.1,0.6,0,1.4-0.4,2.3c-0.4,0.9-0.9,1.9-1.6,3c-0.7,1.1-1.4,2.1-2.3,3.1c-0.8,1-1.7,1.8-2.6,2.5c-0.9,0.7-1.7,1.2-2.5,1.4
				c-0.8,0.2-1.5,0.3-2.1,0.3c-0.6-0.1-1-0.1-1.4-0.3c-0.4-0.1-0.6-0.2-0.8-0.3c-0.2-0.1-0.3,0-0.3,0.1c0,0.2,0.1,0.4,0.4,0.8
				c0.3,0.3,0.6,0.7,1,1c0.4,0.3,0.9,0.6,1.3,0.9c0.5,0.3,0.9,0.4,1.2,0.5c1.8,0.4,3.5,0.3,5-0.5c1.6-0.7,2.9-1.8,4.1-3.2
				c1.2-1.4,2.1-2.9,2.8-4.6C266,173,266.3,171.3,266.4,169.7z"/>
			<path d="M287,164.6c-0.3-0.5-0.7-0.8-1.2-0.8c-0.4-0.1-0.9,0-1.3,0.3c-0.4,0.3-0.8,0.8-1,1.5c-0.5,1.4-1.1,2.9-1.8,4.7
				c-0.7,1.8-1.3,3.3-2,4.5c-0.5,0.9-1.1,1.6-1.7,2.3c-0.7,0.6-1.3,1-1.9,1.1c-0.6,0.1-1.1-0.1-1.5-0.7c-0.4-0.6-0.6-1.6-0.6-3.1
				c0-1,0.2-2.1,0.5-3.2c0.3-1.1,0.5-2,0.7-2.5c0.1-0.7,0-1.2-0.4-1.7c-0.4-0.5-0.8-0.8-1.3-0.9c-0.5-0.1-1-0.1-1.5,0.2
				c-0.5,0.2-0.8,0.7-1,1.5c-0.3,1.2-0.5,2.4-0.7,3.5c-0.2,1.2-0.2,2.3-0.2,3.3c0.1,1.8,0.5,3.2,1.3,4.4c0.8,1.1,1.8,1.9,2.9,2.2
				c1.1,0.4,2.3,0.3,3.5-0.1c1.2-0.4,2.3-1.3,3.2-2.6c0.3-0.4,0.6-0.9,0.8-1.3c0.2-0.5,0.5-1,0.8-1.6c-0.1,1.5-0.2,2.9-0.4,4.3
				c-0.1,1.4-0.3,2.7-0.5,3.9c-0.5,2.7-1.1,5.7-1.9,8.8c-0.8,3.1-1.7,6-2.9,8.7c-1.1,2.7-2.4,4.9-3.9,6.6c-1.5,1.8-3.1,2.6-5,2.6
				c-1.1,0-1.9-0.6-2.3-1.8c-0.4-1.2-0.4-2.3,0-3.4c0.4-1.2,1.2-2.2,2.4-2.9c0.5-0.3,0.9-0.7,1-1.1c0.1-0.4,0.2-0.8,0-1.2
				c-0.1-0.4-0.4-0.6-0.7-0.8c-0.4-0.1-0.8,0-1.4,0.3c-1,0.6-1.7,1.3-2.3,2.1c-0.6,0.8-1,1.6-1.3,2.5c-0.4,1-0.5,2.1-0.4,3.2
				c0.1,1.1,0.3,2.1,0.7,3c0.4,0.9,1,1.6,1.7,2.2c0.7,0.6,1.6,0.8,2.6,0.8c2.2,0,4.2-0.8,6-2.5c1.8-1.6,3.4-3.8,4.8-6.4
				c1.4-2.6,2.6-5.7,3.6-9.1c1-3.4,1.9-6.8,2.5-10.3c0.7-3.5,1.2-6.9,1.6-10.2c0.4-3.3,0.7-6.2,0.9-8.6
				C287.5,165.8,287.4,165.1,287,164.6z"/>
		</g>
		<g>
			<path d="M252.3,218.3c0.7-0.7,1-1.4,1.2-2.1c0.1-0.7,0-1.3-0.4-1.8c-0.4-0.5-1-0.8-1.7-0.8c-0.7,0-1.2,0.2-1.6,0.6
				c-0.4,0.4-0.6,0.9-0.6,1.5c0,0.5,0.1,0.9,0.4,1.3c0.3,0.4,0.7,0.7,1.2,0.8c-0.3,0.3-0.8,0.7-1.6,1.2c-0.5,0.3-0.7,0.6-0.5,0.8
				c0.1,0.2,0.4,0.3,0.8,0.2C250.7,219.6,251.7,219,252.3,218.3z"/>
			<path d="M82.9,194.3c0.6-2.3,1.2-3.8,1.8-4.5c0.5-0.5,0.9-1.1,1-1.7c0.1-0.6,0.1-1.1,0-1.5c-0.1-0.4-0.4-0.7-0.8-0.8
				c-0.4-0.1-0.8-0.1-1.3,0.2c-1,0.6-1.9,2.1-2.8,4.4c-0.9,2.3-1.7,5.2-2.4,8.6c-0.7,3.4-1.5,7.1-2.2,11.3
				c-0.7,4.1-1.5,8.3-2.2,12.5c-0.7,4.2-1.5,8.2-2.4,12.2c-0.9,3.9-1.8,7.4-2.8,10.4c-1,3-2.1,5.4-3.3,7.2c-1.2,1.8-2.6,2.6-4.1,2.5
				c-1-0.1-1.6-1.2-2.1-3.3c-0.4-2.2-0.7-4.9-0.7-8.2c-0.1-3.3,0-6.8,0.2-10.7c0.2-3.9,0.5-7.5,0.8-11.1c0.3-3.5,0.6-6.6,0.9-9.2
				c0.3-2.6,0.5-4.3,0.6-5.1c0.2-1,0.1-1.9-0.3-2.5c-0.4-0.7-0.8-1.1-1.3-1.2c-0.5-0.1-1,0-1.6,0.5c-0.5,0.5-0.9,1.3-1.2,2.6
				c-0.2,1.1-0.4,2.6-0.7,4.6c-0.3,2-0.6,4.3-0.9,6.9c-0.3,2.6-0.6,5.4-0.8,8.4c-0.2,3-0.3,6-0.4,8.9c-0.1,2.9,0,5.8,0.2,8.5
				c0.2,2.7,0.6,5.1,1.1,7.2c0.5,2.1,1.3,3.7,2.2,4.9c0.9,1.2,2.2,1.8,3.7,1.8c2,0.1,3.8-0.8,5.4-2.6c1.6-1.8,3-4.2,4.3-7.2
				c1.2-3,2.4-6.4,3.4-10.3c1-3.8,1.9-7.8,2.7-11.9c0.8-4.1,1.5-8.2,2.2-12.2c0.7-4,1.3-7.7,1.9-11.1
				C81.7,199.4,82.3,196.6,82.9,194.3z"/>
			<path d="M165.4,223.6c-0.7-1-1.7-1.5-3-1.5c-1.9,0-3.7,0.9-5.5,2.6c-1.8,1.8-3.4,4.1-4.9,7.2c0.3-1.5,0.6-2.9,1-4.2
				c0.4-1.3,0.6-2.3,0.7-2.9c0.1-0.7,0-1.2-0.4-1.7c-0.4-0.5-0.8-0.8-1.3-0.9c-0.5-0.1-1-0.1-1.5,0.2c-0.5,0.2-0.8,0.7-1,1.5
				c-0.2,0.9-0.5,2.1-0.9,3.5c-0.2,0.8-0.4,1.5-0.5,2.3c-0.1,0.3-0.2,0.5-0.4,0.8c-0.7,1.4-1.6,3.1-2.9,4.9
				c-1.3,1.8-2.7,3.6-4.3,5.3c-1.6,1.7-3.2,3.2-4.9,4.5c-1.7,1.3-3.2,2-4.5,2.2c-0.9,0.1-1.5-0.1-2-0.8c-0.4-0.6-0.5-1.4-0.5-2.4
				c0-1,0.2-2.1,0.6-3.3c0.4-1.2,0.8-2.4,1.4-3.7c0.6-1.3,1.2-2.5,2-3.8c1.1,0.9,2.3,1.4,3.6,1.5c1.3,0.1,2.5-0.2,3.7-0.8
				c1.2-0.6,2.1-1.5,2.9-2.7c0.8-1.2,1.1-2.6,1.1-4.2c0-1.4-0.4-2.5-1.2-3.3c-0.8-0.7-1.8-1.1-3-1.2c-1.7-0.1-3.4,0.5-5.2,1.7
				c-1.7,1.2-3.3,2.8-4.6,4.7c-1.3,1.9-2.4,4-3.2,6.4c-0.5,1.4-0.8,2.7-1,4c-0.4,0.9-0.9,1.8-1.3,2.7c-0.9,1.8-1.8,3.4-2.6,4.9
				c-0.8,1.4-1.6,2.6-2.4,3.5c-0.8,0.9-1.4,1.3-1.9,1.2c-0.5-0.1-0.9-0.6-1.1-1.4c-0.2-0.8-0.3-1.8-0.3-3c0-0.9,0.1-2.5,0.4-4.9
				c0.3-2.4,0.7-5.1,1.1-8.2c0.4-3.1,0.9-6.4,1.4-9.9c0.5-3.5,1-6.8,1.5-10c0.5-3.2,0.9-6.1,1.3-8.7c0.4-2.6,0.7-4.5,1-5.8
				c0.1-0.8,0-1.4-0.4-1.8c-0.4-0.4-0.8-0.7-1.4-0.8c-0.5-0.1-1.1,0-1.6,0.4c-0.5,0.3-0.8,0.9-0.9,1.6c-0.2,1.3-0.6,3.2-1,5.7
				c-0.4,2.5-0.9,5.2-1.3,8.3c-0.5,3.1-1,6.3-1.4,9.6c-0.3,2.2-0.6,4.4-0.9,6.5c-0.7,1.4-1.4,2.9-2.3,4.6c-1,1.9-2.1,3.8-3.3,5.5
				c-1.2,1.7-2.6,3.2-4.1,4.4c-1.5,1.2-3,1.8-4.6,1.7c-0.8,0-1.3-0.5-1.4-1.6c-0.1-1,0-2.3,0.4-3.9c0.3-1.6,0.8-3.3,1.5-5.2
				c0.7-1.9,1.3-3.7,2-5.3c0.7-1.7,1.2-3.2,1.7-4.5c0.5-1.3,0.8-2.2,0.9-2.6c0.1-0.4,0-0.8-0.3-1.2c-0.3-0.4-0.7-0.7-1.1-0.8
				c-0.4-0.2-0.9-0.2-1.4-0.2c-0.5,0.1-0.9,0.4-1.1,0.9c-0.8,1.5-1.8,3.5-3.1,5.8c-1.3,2.3-2.8,4.5-4.3,6.6
				c-1.6,2.1-3.2,3.9-4.8,5.4c-1.6,1.5-3.1,2.1-4.4,2c-0.7-0.1-1.1-0.4-1.2-1c-0.1-0.6,0-1.4,0.4-2.3c0.4-0.9,0.9-1.9,1.6-3
				c0.7-1.1,1.4-2.1,2.3-3.1c0.8-1,1.7-1.8,2.6-2.5c0.9-0.7,1.7-1.2,2.5-1.4c0.8-0.2,1.5-0.3,2.1-0.3c0.6,0.1,1.1,0.1,1.4,0.3
				c0.4,0.1,0.6,0.2,0.8,0.3c0.2,0.1,0.3,0,0.3-0.2c0-0.2-0.1-0.4-0.4-0.8c-0.3-0.3-0.6-0.6-1-0.9c-0.4-0.3-0.8-0.6-1.3-0.8
				c-0.5-0.2-0.9-0.4-1.2-0.5c-1.8-0.4-3.5-0.3-5,0.5c-1.6,0.7-2.9,1.8-4.1,3.1c-1.2,1.3-2.1,2.9-2.8,4.6c-0.7,1.7-1.1,3.4-1.1,4.9
				c-0.1,1.5,0.3,2.9,0.9,4c0.7,1.1,1.8,1.8,3.3,2.1c1.1,0.1,2.2-0.1,3.3-0.8c1.2-0.6,2.3-1.5,3.5-2.5c1.2-1.1,2.3-2.3,3.4-3.7
				c1.1-1.4,2.2-2.9,3.2-4.5c-0.3,1.1-0.7,2.4-1.2,4c-0.5,1.6-0.9,3.2-1.1,4.8c-0.2,1.6-0.1,3.1,0.3,4.4c0.4,1.3,1.4,2.3,2.9,2.9
				c2.1,0.5,4,0.2,5.9-0.9c1.8-1.2,3.5-2.7,5-4.7c1.3-1.7,2.5-3.6,3.6-5.6c-0.1,1.4-0.2,2.7-0.3,4c-0.2,2.6-0.2,4.6-0.2,6.1
				c0.1,2,0.6,3.8,1.4,5.4c0.8,1.6,2,2.5,3.6,2.5c0.8,0,1.6-0.5,2.6-1.4c1-0.9,1.9-2.2,2.9-3.7c0.9-1.4,1.8-3,2.7-4.7
				c0,0.2,0,0.3,0.1,0.5c0.2,1,0.6,1.9,1.1,2.7c0.5,0.8,1.1,1.4,1.9,1.8c0.8,0.4,1.7,0.5,2.7,0.4c1.5-0.2,3.2-1,5-2.3
				c1.8-1.3,3.6-2.9,5.3-4.6c1.7-1.8,3.3-3.7,4.7-5.8c0.2-0.3,0.4-0.6,0.6-0.9c0,0.1,0,0.1,0,0.2c-0.1,1.7,0,3.1,0.4,4.4
				c0.2,1,0.6,1.6,1.1,1.8c0.5,0.3,0.9,0.3,1.4,0c0.4-0.2,0.8-0.7,1.1-1.3c0.3-0.7,0.4-1.5,0.3-2.4c0.1-0.3,0.2-0.6,0.4-0.8
				c0.1-0.2,0.2-0.5,0.4-0.8c0.8-2.1,1.9-4.1,3.2-6.1c1.3-2,2.5-3.5,3.7-4.6c1.2-1.1,2.2-1.5,3-1.3c0.8,0.2,1.2,1.5,1.2,3.9
				c0,0.8-0.1,1.9-0.4,3.3c-0.3,1.4-0.6,2.9-1,4.5c-0.4,1.6-0.8,3.1-1.1,4.6c-0.4,1.5-0.6,2.8-0.8,3.7c-0.1,0.7,0,1.2,0.4,1.7
				c0.4,0.5,0.8,0.8,1.3,0.9c0.5,0.1,1,0.1,1.5-0.2c0.5-0.2,0.8-0.7,1-1.5c0.2-0.8,0.5-2,0.8-3.5c0.4-1.5,0.8-3.2,1.1-5
				c0.4-1.8,0.6-3.7,0.8-5.6c0.2-1.9,0.2-3.6,0-5.2C166.5,225.8,166,224.6,165.4,223.6z M137.2,227.3c1-1,1.8-1.6,2.5-1.6
				c0.7,0,1.1,0.2,1.3,0.7c0.2,0.5,0.3,1,0.1,1.6c-0.1,0.6-0.4,1.3-0.8,1.9c-0.4,0.7-1,1.2-1.6,1.6c-0.6,0.4-1.3,0.6-2.1,0.6
				c-0.8,0-1.6-0.4-2.4-1.1C135.2,229.7,136.2,228.4,137.2,227.3z"/>
			<path d="M192.7,221.1c0.6,0,1.1-0.3,1.5-0.8c0.4-0.5,0.6-1.1,0.6-1.8c0-0.7-0.2-1.3-0.6-1.8c-0.4-0.5-0.9-0.7-1.5-0.7
				c-0.6,0-1.1,0.2-1.5,0.7c-0.4,0.5-0.6,1.1-0.6,1.8c0,0.7,0.2,1.3,0.6,1.8C191.6,220.9,192.1,221.1,192.7,221.1z"/>
			<path d="M219.2,223.6c-0.7-1-1.7-1.5-3-1.5c-1.9,0-3.7,0.9-5.5,2.6c-1.8,1.8-3.4,4.1-4.9,7.2c0.3-1.5,0.6-2.9,1-4.2
				c0.4-1.3,0.6-2.3,0.7-2.9c0.1-0.7,0-1.2-0.4-1.7c-0.4-0.5-0.8-0.8-1.3-0.9c-0.5-0.1-1-0.1-1.5,0.2c-0.5,0.2-0.8,0.7-1,1.5
				c-0.2,0.9-0.5,2.1-0.9,3.5c-0.2,0.7-0.3,1.4-0.5,2.2c0,0,0,0,0,0c-0.1,0.3-0.3,0.6-0.4,0.9c-0.6,1.4-1.3,2.7-2,4.1
				c-0.7,1.4-1.5,2.6-2.4,3.7c-0.8,1.1-1.6,2.1-2.5,2.9c-0.8,0.8-1.5,1.2-2.1,1.4c-0.6,0.1-1.1-0.1-1.5-0.6
				c-0.4-0.6-0.6-1.6-0.6-3.3c0-0.8,0.1-1.7,0.3-2.7c0.2-1,0.4-2.1,0.7-3.3c0.3-1.1,0.5-2.3,0.8-3.4c0.3-1.1,0.5-2.2,0.7-3.2
				c0.1-0.7,0-1.2-0.4-1.6c-0.4-0.4-0.8-0.7-1.3-0.9c-0.5-0.1-1-0.1-1.5,0.2c-0.5,0.3-0.8,0.8-1,1.6c-0.2,0.8-0.5,1.9-0.8,3.3
				c-0.1,0.5-0.2,0.9-0.3,1.4c-0.4,0.9-0.9,2.1-1.5,3.5c-0.9,2.1-1.9,4.3-3,6.6c-0.7,1.5-1.5,3-2.2,4.5c-0.8,1.4-1.5,2.7-2.2,3.8
				c-0.7,1.1-1.4,2-2,2.6c-0.6,0.7-1.1,0.9-1.5,0.8c-0.5-0.1-0.9-0.6-1.1-1.4c-0.2-0.8-0.3-1.8-0.2-3c0-1.1,0.1-2.9,0.4-5.4
				c0.3-2.5,0.7-5.4,1.1-8.6c0.4-3.2,0.9-6.5,1.4-9.9c0.5-3.4,1-6.5,1.5-9.4c0.7,0.4,1.5,0.7,2.2,1c0.8,0.3,1.5,0.5,2.3,0.5
				c0.7,0.1,1.5,0,2.1-0.3c0.7-0.3,1.3-0.8,1.9-1.6c0.2-0.4,0.3-0.7,0.3-1.1c0-0.4-0.2-0.6-0.4-0.8c-0.3-0.2-0.6-0.3-1-0.2
				c-0.4,0.1-0.9,0.3-1.4,0.7c-0.5,0.5-1.3,0.6-2.2,0.1c-1-0.4-2-1-3.2-1.7c0.1-1,0.2-1.9,0.4-2.7c0.1-0.8,0.2-1.5,0.4-2.1
				c0.1-0.8,0-1.4-0.4-1.9c-0.4-0.5-0.8-0.8-1.3-0.8c-0.5-0.1-1.1,0-1.6,0.4c-0.5,0.3-0.8,0.9-0.9,1.6c-0.1,0.5-0.2,1-0.3,1.6
				c-0.1,0.6-0.2,1.2-0.3,1.9c-1.2-0.4-2.4-0.9-3.5-1.3c-1.2-0.5-2.5-0.4-4,0.3c-0.5,0.2-0.8,0.6-0.9,0.9c-0.1,0.4-0.1,0.7,0.1,1
				c0.1,0.3,0.4,0.5,0.7,0.7c0.3,0.2,0.6,0.2,0.9,0.1c0.5-0.2,1-0.2,1.5-0.1c0.5,0.1,1,0.3,1.5,0.5c0.5,0.2,1,0.5,1.5,0.8
				c0.5,0.3,1,0.5,1.6,0.6c-0.5,2.7-1,5.7-1.4,9c-0.5,3.3-0.9,6.6-1.3,9.8c-0.4,3.2-0.7,6.3-0.9,9.1c-0.2,2.8-0.3,5.1-0.2,6.9
				c0.1,2,0.6,3.7,1.4,5.3c0.8,1.6,2,2.4,3.6,2.5c0.7,0,1.5-0.4,2.3-1.2c0.8-0.8,1.7-1.8,2.6-3.1c0.9-1.3,1.8-2.8,2.7-4.4
				c0.9-1.6,1.8-3.3,2.6-5c0.4-0.8,0.7-1.5,1.1-2.3c0,1,0.1,2,0.2,2.9c0.2,1.3,0.7,2.3,1.4,3.1c0.7,0.8,1.7,1.2,3.1,1.2
				c2.3,0,4.6-1.3,6.7-3.9c1.1-1.3,2.1-2.8,3-4.4c0,1.3,0.1,2.5,0.4,3.5c0.2,1,0.6,1.6,1.1,1.8c0.5,0.3,0.9,0.3,1.4,0
				c0.4-0.2,0.8-0.7,1.1-1.3c0.3-0.7,0.4-1.5,0.3-2.4c0.1-0.3,0.2-0.6,0.4-0.8c0.1-0.2,0.2-0.5,0.4-0.8c0.8-2.1,1.9-4.1,3.2-6.1
				c1.3-2,2.5-3.5,3.7-4.6c1.2-1.1,2.2-1.5,3-1.3c0.8,0.2,1.2,1.5,1.2,3.9c0,0.8-0.1,1.9-0.4,3.3c-0.3,1.4-0.6,2.9-1,4.5
				c-0.4,1.6-0.8,3.1-1.1,4.6c-0.4,1.5-0.6,2.8-0.8,3.7c-0.1,0.7,0,1.2,0.4,1.7c0.4,0.5,0.8,0.8,1.3,0.9c0.5,0.1,1,0.1,1.5-0.2
				c0.5-0.2,0.8-0.7,1-1.5c0.2-0.8,0.5-2,0.8-3.5c0.4-1.5,0.8-3.2,1.1-5c0.4-1.8,0.6-3.7,0.8-5.6c0.2-1.9,0.2-3.6,0-5.2
				C220.3,225.8,219.8,224.6,219.2,223.6z"/>
			<path d="M247.1,227.8c-0.3-0.1-0.6-0.1-1,0c-0.4,0.1-0.7,0.5-0.9,1c-0.1,0.2-0.2,0.5-0.4,0.8c-0.1,0.3-0.3,0.6-0.4,0.9
				c-0.7,1.4-1.6,3.1-2.9,4.9c-1.3,1.8-2.7,3.6-4.3,5.3c-1.6,1.7-3.2,3.2-4.9,4.5c-1.7,1.3-3.2,2-4.5,2.2c-0.9,0.1-1.5-0.1-2-0.8
				c-0.4-0.6-0.5-1.4-0.5-2.4c0-1,0.2-2.1,0.6-3.3c0.4-1.2,0.8-2.4,1.4-3.7c0.6-1.3,1.2-2.5,2-3.8c1.1,0.9,2.3,1.4,3.6,1.5
				c1.3,0.1,2.5-0.2,3.7-0.8c1.2-0.6,2.1-1.5,2.9-2.7c0.8-1.2,1.1-2.6,1.1-4.2c0-1.4-0.4-2.5-1.2-3.3c-0.8-0.7-1.8-1.1-3-1.2
				c-1.7-0.1-3.4,0.5-5.2,1.7c-1.7,1.2-3.3,2.8-4.6,4.7c-1.3,1.9-2.4,4-3.2,6.4c-0.8,2.3-1.2,4.6-1.2,6.8c0,1.1,0.1,2.1,0.4,3.1
				c0.2,1,0.6,1.9,1.1,2.7c0.5,0.8,1.1,1.4,1.9,1.8c0.8,0.4,1.7,0.5,2.7,0.4c1.5-0.2,3.2-1,5-2.3c1.8-1.3,3.6-2.9,5.3-4.6
				c1.7-1.8,3.3-3.7,4.7-5.8c1.4-2.1,2.6-4,3.4-5.8c0.2-0.4,0.3-0.7,0.5-1c0.1-0.3,0.3-0.6,0.4-0.9c0.2-0.5,0.3-1,0.2-1.4
				C247.6,228.2,247.4,227.9,247.1,227.8z M233.9,227.3c1-1,1.8-1.6,2.5-1.6c0.7,0,1.1,0.2,1.3,0.7c0.2,0.5,0.3,1,0.1,1.6
				c-0.1,0.6-0.4,1.3-0.8,1.9c-0.4,0.7-1,1.2-1.6,1.6c-0.6,0.4-1.3,0.6-2.1,0.6c-0.8,0-1.6-0.4-2.4-1.1
				C231.9,229.7,233,228.4,233.9,227.3z"/>
			<path d="M260.4,221c-1.8-0.2-3.3,0.4-4.4,1.8c-1.1,1.4-1.9,3.1-2.4,5.1c-0.5,2.1-0.7,4.2-0.6,6.5c0.1,2.3,0.4,4.2,1,5.8
				c-1.7,1-2.9,2.4-3.7,4.2c-0.8,1.8-1.2,3.6-1.2,5.4s0.4,3.4,1.3,4.7c0.9,1.3,2.1,1.9,3.8,1.9c1.7-0.1,2.9-0.7,3.7-1.9
				c0.7-1.2,1.1-2.6,1.2-4.2c0.1-1.6,0-3.2-0.4-4.9c-0.3-1.7-0.6-3-0.8-4.1c0.7-0.3,1.3-0.4,1.7-0.4c0.4,0,0.6-0.2,0.8-0.5
				c0.2-0.3,0.3-0.7,0.3-1.1c0-0.4-0.1-0.7-0.3-1c-0.2-0.3-0.5-0.4-0.9-0.4c-0.3,0-0.6,0-1,0.1c-0.4,0.1-0.7,0.2-1,0.3
				c-0.1-0.5-0.2-1.4-0.2-2.7c0-1.2,0.1-2.6,0.2-4c0.1-1.4,0.3-2.8,0.6-4.1c0.3-1.3,0.7-2.3,1.2-2.9c0.5-0.7,1.1-0.8,1.6-0.3
				c0.6,0.5,0.8,1.1,0.8,1.9c0,0.4,0.1,0.7,0.4,1c0.2,0.2,0.5,0.4,0.8,0.4c0.3,0,0.6-0.1,0.9-0.3c0.3-0.2,0.4-0.5,0.4-1
				c0.1-1.2-0.3-2.4-1-3.5C262.4,221.7,261.5,221.1,260.4,221z M255.8,251.7c-0.2,1-0.8,1.6-1.7,1.7c-1,0.1-1.7-0.3-2.1-1.1
				c-0.4-0.9-0.5-1.9-0.4-3.1c0.1-1.2,0.4-2.4,0.9-3.6c0.5-1.2,1.2-2.2,2.1-2.8c0.1,0.2,0.2,0.9,0.5,2c0.3,1.1,0.5,2.3,0.7,3.5
				C256.1,249.6,256.1,250.7,255.8,251.7z"/>
			<path d="M325.9,199.6c-1-3-2.6-5.4-4.7-7.2c-2.1-1.8-4.8-2.7-8.1-2.7c-3,0.1-5.9,0.8-8.9,2.4c-3,1.5-5.8,3.4-8.6,5.7
				c-2.8,2.3-5.4,4.8-7.8,7.5c-2.5,2.7-4.7,5.3-6.6,7.8c-0.4,0.5-0.5,0.9-0.5,1.3c0,0.4,0.2,0.7,0.4,1c0.2,0.2,0.5,0.4,0.9,0.4
				c0.4,0,0.7-0.2,1-0.5c1.7-2.3,3.8-4.8,6.1-7.4c2.3-2.6,4.8-5,7.5-7.3c2.6-2.2,5.4-4.1,8.2-5.6c2.8-1.5,5.6-2.3,8.3-2.3
				c2.3,0.1,4.2,0.9,5.7,2.6c1.5,1.7,2.6,3.9,3.3,6.6c0.7,2.7,1,5.9,0.8,9.4c-0.1,3.5-0.7,7.1-1.6,10.7c-0.9,3.7-2.2,7.3-3.8,10.8
				c-1.6,3.6-3.6,6.8-6,9.6c-2.4,2.9-5.1,5.2-8.2,7c-3.1,1.8-6.5,2.9-10.3,3.2c-0.8,0.1-1.7,0-2.9-0.2c-1.2-0.2-2.3-0.6-3.3-1.2
				c-1.1-0.6-1.9-1.3-2.6-2.2c-0.7-0.9-0.9-2-0.8-3.3c0.1-0.8,0.4-1.7,0.9-2.5c0.5-0.9,1-1.7,1.7-2.5c0.7-0.8,1.3-1.5,2.1-2.1
				c0.7-0.7,1.3-1.2,1.9-1.7c0.4-0.3,0.7-0.7,0.8-1.1c0.1-0.4,0.1-0.8-0.1-1.2c-0.1-0.3-0.4-0.5-0.8-0.6c-0.4-0.1-0.8,0.1-1.4,0.5
				c-0.7,0.6-1.5,1.3-2.3,2.1c-0.8,0.8-1.6,1.7-2.3,2.6c-0.7,0.9-1.3,1.9-1.9,2.9c-0.5,1-0.9,2.1-1,3.2c-0.2,1.8,0.1,3.4,0.9,4.8
				c0.8,1.3,1.9,2.4,3.2,3.3c1.3,0.9,2.7,1.5,4.2,1.9c1.5,0.4,2.8,0.6,4,0.4c4.3-0.4,8.3-1.6,11.9-3.7c3.6-2.1,6.8-4.7,9.6-7.8
				c2.8-3.1,5.1-6.7,7-10.7c1.9-4,3.3-7.9,4.3-12c1-4,1.5-8,1.5-11.8C327.4,206,326.9,202.6,325.9,199.6z"/>
			<path d="M294.7,248.3c0.5,0,1-0.3,1.4-0.8c0.4-0.5,0.7-1.3,0.8-2.3c0.5-7,1.3-14.1,2.5-21.1c1.2-7.1,2.4-14,3.6-20.9
				c0.1-0.8,0-1.4-0.4-1.9c-0.4-0.5-0.8-0.8-1.4-0.8c-0.5-0.1-1.1,0-1.6,0.4c-0.5,0.4-0.8,0.9-0.9,1.7c-0.2,1.1-0.5,2.7-0.8,4.7
				c-0.3,2-0.7,4.2-1.1,6.7c-0.4,2.5-0.8,5.1-1.2,7.9c-0.4,2.8-0.8,5.6-1.2,8.4c-0.4,2.8-0.7,5.5-1,8.2c-0.3,2.6-0.5,5-0.7,7.1
				c-0.1,0.9,0.1,1.6,0.5,2.1C293.7,248.1,294.2,248.3,294.7,248.3z"/>
			<path d="M377.6,220.7c-0.3-0.5-0.7-0.8-1.2-0.8c-0.4-0.1-0.9,0-1.3,0.3c-0.4,0.3-0.8,0.8-1,1.5c-0.5,1.4-1.1,2.9-1.8,4.7
				c-0.7,1.8-1.3,3.3-2,4.5c-0.5,0.9-1.1,1.6-1.7,2.3c-0.7,0.6-1.3,1-1.9,1.1c-0.6,0.1-1.1-0.1-1.5-0.7c-0.4-0.6-0.6-1.6-0.6-3.1
				c0-1,0.2-2.1,0.5-3.2c0.3-1.1,0.5-2,0.7-2.5c0.1-0.7,0-1.2-0.4-1.7c-0.4-0.5-0.8-0.8-1.3-0.9c-0.5-0.1-1-0.1-1.5,0.2
				c-0.5,0.2-0.8,0.7-1,1.5c-0.3,1.2-0.5,2.4-0.7,3.5c-0.1,0.7-0.2,1.3-0.2,1.9c-0.7,1.4-1.4,2.9-2.3,4.6c-1,1.9-2.1,3.8-3.3,5.5
				c-1.2,1.7-2.6,3.2-4.1,4.4c-1.5,1.2-3,1.8-4.6,1.7c-0.8,0-1.3-0.5-1.4-1.6c-0.1-1,0-2.3,0.4-3.9c0.3-1.6,0.8-3.3,1.5-5.2
				c0.7-1.9,1.3-3.7,2-5.3c0.7-1.7,1.2-3.2,1.7-4.5c0.5-1.3,0.8-2.2,0.9-2.6c0.1-0.4,0-0.8-0.3-1.2c-0.3-0.4-0.7-0.7-1.1-0.8
				c-0.4-0.2-0.9-0.2-1.4-0.2c-0.5,0.1-0.9,0.4-1.1,0.9c-0.8,1.5-1.8,3.5-3.1,5.8c-1.3,2.3-2.8,4.5-4.3,6.6
				c-1.6,2.1-3.2,3.9-4.8,5.4c-1.6,1.5-3.1,2.1-4.4,2c-0.7-0.1-1.1-0.4-1.2-1c-0.1-0.6,0-1.4,0.4-2.3c0.4-0.9,0.9-1.9,1.6-3
				c0.7-1.1,1.4-2.1,2.3-3.1c0.8-1,1.7-1.8,2.6-2.5c0.9-0.7,1.7-1.2,2.5-1.4c0.8-0.2,1.5-0.3,2.1-0.3c0.6,0.1,1.1,0.1,1.4,0.3
				c0.4,0.1,0.6,0.2,0.8,0.3c0.2,0.1,0.3,0,0.3-0.2c0-0.2-0.1-0.4-0.4-0.8c-0.3-0.3-0.6-0.6-1-0.9c-0.4-0.3-0.8-0.6-1.3-0.8
				c-0.5-0.2-0.9-0.4-1.2-0.5c-1.8-0.4-3.5-0.3-5,0.5c-1.6,0.7-2.9,1.8-4.1,3.1c-1.2,1.3-2.1,2.9-2.8,4.6c-0.7,1.7-1.1,3.4-1.1,4.9
				c-0.1,1.5,0.3,2.9,0.9,4c0.7,1.1,1.8,1.8,3.3,2.1c1.1,0.1,2.2-0.1,3.3-0.8c1.2-0.6,2.3-1.5,3.5-2.5c1.2-1.1,2.3-2.3,3.4-3.7
				c1.1-1.4,2.2-2.9,3.2-4.5c-0.3,1.1-0.7,2.4-1.2,4c-0.5,1.6-0.9,3.2-1.1,4.8c-0.2,1.6-0.1,3.1,0.3,4.4c0.4,1.3,1.4,2.3,2.9,2.9
				c2.1,0.5,4,0.2,5.9-0.9c1.8-1.2,3.5-2.7,5-4.7c1.5-2,2.9-4.1,4.1-6.4c0.4-0.8,0.8-1.5,1.1-2.2c0.2,0.4,0.4,0.8,0.6,1.1
				c0.8,1.1,1.8,1.9,2.9,2.2c1.1,0.4,2.3,0.3,3.5-0.1c1.2-0.4,2.3-1.3,3.2-2.6c0.3-0.4,0.6-0.9,0.8-1.3c0.2-0.5,0.5-1,0.8-1.6
				c-0.1,1.5-0.2,2.9-0.4,4.3c-0.1,1.4-0.3,2.7-0.5,3.9c-0.5,2.7-1.1,5.7-1.9,8.8c-0.8,3.1-1.7,6-2.9,8.7c-1.1,2.7-2.4,4.9-3.9,6.6
				c-1.5,1.8-3.1,2.6-5,2.6c-1.1,0-1.9-0.6-2.3-1.8c-0.4-1.2-0.4-2.3,0-3.4c0.4-1.2,1.2-2.2,2.4-2.9c0.5-0.3,0.9-0.7,1-1.1
				c0.1-0.4,0.2-0.8,0-1.2c-0.1-0.4-0.4-0.6-0.7-0.8c-0.4-0.1-0.8,0-1.4,0.3c-1,0.6-1.7,1.3-2.3,2.1c-0.6,0.8-1,1.6-1.3,2.5
				c-0.4,1-0.5,2.1-0.4,3.2c0.1,1.1,0.3,2.1,0.7,3c0.4,0.9,1,1.6,1.7,2.2c0.7,0.6,1.6,0.8,2.6,0.8c2.2,0,4.2-0.8,6-2.5
				c1.8-1.6,3.4-3.8,4.8-6.4c1.4-2.6,2.6-5.7,3.6-9c1-3.4,1.9-6.8,2.5-10.3c0.7-3.5,1.2-6.9,1.6-10.2c0.4-3.3,0.7-6.2,0.9-8.6
				C378,221.8,377.9,221.2,377.6,220.7z"/>
		</g>
	</g>
	<g>
		<path class="st1" d="M301.2,168.6c0.4-0.4,0.7-0.8,1.1-1.2c1.5-1.6,3.1-3.2,4.5-4.9c3.4-4.2,4.8-8,4.2-11.5
			c-0.5-2.9-2.9-4.9-5.9-4.9c-0.9,0-1.9,0.2-2.7,0.6c-1.5,0.7-2.6,1.9-3.3,3.5c-0.5-0.9-1-1.6-1.5-2.3c-0.9-1.1-1.9-1.6-3-1.6
			c-1.8,0-3.3,1.7-3.4,3.9c-0.4,5.3,2.2,10.8,5.1,16.1c0.4,0.7,0.8,1.3,1.2,2.1c-1.2,1.3-2.1,2.3-2.8,3.4c-0.3,0.5-0.4,1.1-0.1,1.6
			c0.3,0.5,0.8,0.9,1.4,0.9c0.4,0,0.8-0.2,1.1-0.6c0.6-0.9,1.3-1.7,2.1-2.7c2.5,3.7,5.5,7.1,8.4,10.4l0.6,0.7
			c0.3,0.3,0.7,0.5,1.2,0.5c0.6,0,1.2-0.4,1.5-0.9c0.2-0.5,0.1-1-0.2-1.5C307.2,176.5,303.9,172.7,301.2,168.6z M301.3,156.2
			c-0.4-3,0.3-6.4,3.3-7.1c1.2-0.3,2.1,0,2.7,0.8c1,1.4,0.8,4.1,0.1,5.9c-1.5,3.9-4.6,7-7.5,9.9l-0.3,0.3c-2.2-3.5-3.7-7-4.8-10.5
			c-0.7-2.2-0.9-4.2-0.6-5.8c0-0.3,0.1-0.5,0.2-0.5c0.2,0,0.9,0.6,1.4,1.3c1.2,1.8,1.9,3.9,2.6,6l0.1,0.3c0.2,0.6,0.7,1,1.4,1
			c0.5,0,0.9-0.2,1.2-0.5C301.2,157,301.4,156.6,301.3,156.2z"/>
		<path class="st1" d="M139.3,157c-0.2-2.3-1.6-3.9-3.4-3.9c-1.1,0-2.1,0.6-3,1.6c-0.5,0.7-1.1,1.4-1.5,2.3
			c-0.7-1.7-1.8-2.9-3.3-3.5c-0.9-0.4-1.8-0.6-2.7-0.6c-3,0-5.5,2-5.9,4.9c-0.6,3.5,0.8,7.2,4.2,11.5c1.4,1.7,3,3.4,4.5,4.9
			c0.4,0.4,0.7,0.8,1.1,1.2c-2.8,4.1-6.1,8-9.2,11.6c-0.4,0.4-0.5,1-0.2,1.5c0.2,0.5,0.9,0.9,1.5,0.9c0.4,0,0.9-0.2,1.2-0.5l0.6-0.7
			c2.9-3.3,5.8-6.7,8.4-10.4c0.8,1,1.5,1.8,2.2,2.7c0.3,0.4,0.7,0.6,1.1,0.6c0.6,0,1.1-0.4,1.4-0.9c0.3-0.5,0.2-1.1-0.1-1.6
			c-0.8-1.1-1.6-2.1-2.9-3.4c0.4-0.7,0.8-1.4,1.2-2.1C137.1,167.8,139.7,162.3,139.3,157z M129.4,164.1c0.3,0.3,0.7,0.5,1.2,0.5
			c0.7,0,1.2-0.4,1.4-1l0.1-0.3c0.7-2.1,1.4-4.2,2.6-6c0.5-0.8,1.2-1.3,1.4-1.3c0,0,0.1,0.1,0.2,0.5c0.2,1.6,0,3.6-0.6,5.8
			c-1,3.5-2.6,6.9-4.8,10.5l-0.3-0.3c-3-3-6-6.1-7.5-9.9c-0.7-1.7-0.8-4.5,0.1-5.9c0.4-0.6,1-0.9,1.8-0.9c0.3,0,0.6,0,0.9,0.1
			c3,0.7,3.7,4.1,3.3,7.1C129,163.4,129.1,163.8,129.4,164.1z"/>
	</g>
	<g>
		<path class="st1" d="M144.4,284.8c0.2-0.3,0.5-0.6,0.7-0.9C145.3,283.4,144.3,284.9,144.4,284.8z"/>
		<path class="st1" d="M124.1,278.7c-1.9,1.7-3.6,3.6-5.7,5c-1.8,1.2-3.7,1.9-5.2,3.4c-2.2,2-4.7,6-0.2,6.5c9.7,1,19.7,1,29.4,1.6
			c3.7,0.2,7.3,0.7,11,1.3c1.8,0.3,4.3,1.1,6.1,0.6c3.5-1.1,6.8-6.6,9.1-9.3c2.1-2.6,4.9-4.4,8.2-5c3.6-0.6,7.8-0.1,11.4-0.1
			c5,0,10.1,0.1,15.1,0.1c16.9,0.1,33.7-2.1,50.6-2.5c5.7-0.2,11.4-0.1,17.1-0.2c5.4-0.1,10.8,0.2,16.2,0.3c2.7,0,5.5-0.1,8.2,0
			c2.1,0,4.5,1,6.5,0.3c-0.7,2.3-2.8,3.9-4.2,5.8c-1.4,1.8-2.4,3.7-2.9,6c-1.6,6.7,5.1,2.9,7.7,1.2c5.1-3.2,10.1-5.4,15.4-8
			c1.8-0.9,4.6-2.2,5.9-3.9c2-2.4,0.1-3.8-1.9-5.2c-1.9-1.3-3.3-3.1-5.1-4.5c-1.6-1.2-3.8-1.8-5.5-2.8c-3.4-1.9-7.4-5.6-11.4-6.1
			c-5-0.5-2.4,5.6-1,7.9c0.6,0.9,1.7,1.9,2.1,2.9c0.8,2.1,1.2,0.6-0.5,1.6c-1.6,0.9-4.7,0.6-6.5,0.7c-7.7,0.4-15.4-0.8-23,0.1
			c-5.1,0.6-9.7,1.7-14.8,1.2c-2.4-0.2-4.8-0.3-7.2-0.2c-4.6,0.2-9.2,0.5-13.8,0.7c-4.5,0.2-8.9-0.2-13.4,0.1
			c-5.2,0.4-10.2,0.8-15.4,0.8c-5.8,0-11.5,0-17.3,0.1c-4.8,0-9.8,0.3-14.5-0.7c-3.1-0.7-5.3-3.5-7.7-5.6c-3.6-3.1-6.8-6.6-9.6-10.3
			c-3.3-2.4-8.7-1.5-12.6-1.4c-5,0.1-10.1,0.6-15.1,0.7c-5.4,0.1-10.6-0.3-16,0.1c-2.1,0.1-4.2,0.1-6.3,0.1
			C112,268.1,117.6,273.9,124.1,278.7z M309.5,277.1c-0.3-0.5-0.6-1-1-1.5c-0.2-0.3-0.3-0.6-0.6-0.8c-0.2-0.2-0.3-0.3-0.4-0.5
			c-0.1-0.2-0.2-0.4-0.3-0.6c-0.2-0.5-0.6-0.8-0.6-1.4c2.2,0.8,11.7,3.9,11.5,6.9c-0.2,2-4.4,3.8-5.9,4.6c-2.3,1.2-4.4,1.6-6.4,3.4
			c-0.2-2.3,2.3-4.4,3.3-6.3C309.7,279.5,310.1,278.3,309.5,277.1z M159.2,291.9c-1.5,1.1-1.8,1.2-3.6,0.8c-0.2,0-2.8-0.7-2.8-0.6
			c1.4-1.8,2.9-3.6,4.4-5.3c0.7-0.8,2.7-3.9,3.8-3.9c1.9,0,3.7,0,5.6,0C164.7,286.4,162.4,289.5,159.2,291.9z M154.3,264.8
			c1.5,0.7,3.2,4.2,4.3,5.5c2,2.4,4.2,4.8,6.4,7c-1.2,0.2-2.3,0.7-3.5,0.7c-3.4,0-4.6-1.6-6.5-4.1c-2.4-3.1-5.1-5.9-7.3-9.2
			C149.6,264.7,152.7,264.1,154.3,264.8z M146.3,267.2c1.2,1.5,1.5,3,2.9,4.4c1.6,1.7,3.2,3.4,4.5,5.3c-2,0.4-4,0.4-6,0.4
			c-5,0.2-10.5-7.7-12.2-11.9C138.7,264.6,144.2,264.4,146.3,267.2z M138.6,281.1c2.3-0.1,5.1,0.8,7.4,1.2c-0.3,0.6-0.6,1.1-0.9,1.6
			c-0.4,0.6-0.6,0.8-0.7,0.9c-1.1,1.4-2.2,2.6-3.3,4c-0.5,0.6-1.2,2-1.9,2.3c-1,0.4-3-0.2-4-0.3c-1.9-0.2-3.8-0.3-5.7,0
			c1.7-2.3,4-4.4,5.6-6.8C136.1,282.3,136.4,281.2,138.6,281.1z M125.8,290c-2.5,0-4.9-0.7-7.4-0.8c1.6-0.3,2.9-2.4,4-3.4
			c0.8-0.8,1.9-1.4,2.7-2.2c0.5-0.5,1-1.9,1.5-2.1c1.6-1,4.8-0.3,6.7-0.2C131.9,285,128.7,287.5,125.8,290z M120.5,264.5
			c1.7-0.1,2.8,0.8,4.1,2.1c2.7,2.5,4.2,6.4,6.5,9.3c-1.9,0-3.2,0.1-4.5-0.7c-2.7-1.7-5.7-5.2-7.9-7.7c-0.4-0.3-1.8-2.3-2.3-2.3
			C117.6,265,119.1,264.6,120.5,264.5z"/>
	</g>
</g>
</svg>
